<?xml version="1.0" encoding="UTF-8" standalone="no"?>
<svg
   width="102"
   height="39"
   viewBox="0 0 102 39"
   fill="none"
   version="1.1"
   id="svg7"
   sodipodi:docname="logo.svg"
   inkscape:version="1.3 (0e150ed6c4, 2023-07-21)"
   inkscape:export-filename="logo.svg"
   inkscape:export-xdpi="96"
   inkscape:export-ydpi="96"
   xmlns:inkscape="http://www.inkscape.org/namespaces/inkscape"
   xmlns:sodipodi="http://sodipodi.sourceforge.net/DTD/sodipodi-0.dtd"
   xmlns="http://www.w3.org/2000/svg"
   xmlns:svg="http://www.w3.org/2000/svg">
  <defs
     id="defs7" />
  <sodipodi:namedview
     id="namedview7"
     pagecolor="#ffffff"
     bordercolor="#000000"
     borderopacity="0.25"
     inkscape:showpageshadow="2"
     inkscape:pageopacity="0.0"
     inkscape:pagecheckerboard="0"
     inkscape:deskcolor="#d1d1d1"
     inkscape:zoom="11.607843"
     inkscape:cx="51"
     inkscape:cy="19.469595"
     inkscape:window-width="1920"
     inkscape:window-height="1043"
     inkscape:window-x="1920"
     inkscape:window-y="0"
     inkscape:window-maximized="1"
     inkscape:current-layer="svg7" />
  <g
     id="Group 33"
     transform="translate(-0.34516247,8.4174523)">
    <g
       id="Softmerc">
      <path
         d="M 11.1159,5.79242 C 10.9943,6.02212 10.5881,6.09996 10.3609,5.97373 10.0877,5.80675 9.74609,5.63217 9.33621,5.45 8.92632,5.26783 8.47849,5.10843 7.9927,4.9718 7.50692,4.83517 7.02113,4.76686 6.53534,4.76686 c -0.63759,0 -1.13097,0.11385 -1.48013,0.34157 -0.34916,0.21253 -0.52373,0.5465 -0.52373,1.00193 0,0.36434 0.12903,0.65278 0.38711,0.86531 0.27325,0.21253 0.66036,0.40229 1.16133,0.56928 0.50097,0.15181 1.11579,0.33398 1.84447,0.54651 1.0323,0.27326 1.92796,0.60723 2.68701,1.00193 0.759,0.37953 1.3359,0.8729 1.7306,1.48011 0.4099,0.6073 0.6148,1.4118 0.6148,2.4138 0,0.9108 -0.167,1.685 -0.5009,2.3226 -0.334,0.6225 -0.7894,1.131 -1.3663,1.5257 -0.5617,0.3795 -1.20688,0.6604 -1.93556,0.8426 -0.72868,0.1669 -1.48013,0.2504 -2.25436,0.2504 -0.7894,0 -1.60157,-0.0759 -2.43652,-0.2277 C 3.6434,17.5339 2.85399,17.3062 2.09495,17.0178 1.57242,16.8088 1.07866,16.571 0.613682,16.3044 0.256218,16.0995 0.139283,15.6481 0.324582,15.2801 L 1.30898,13.325 c 0.15457,-0.307 0.63263,-0.4084 0.9226,-0.2239 0.33398,0.1974 0.74386,0.4099 1.22965,0.6376 0.50096,0.2126 1.05506,0.4023 1.6623,0.5693 0.60723,0.167 1.22205,0.2505 1.84447,0.2505 0.66795,0 1.16133,-0.1063 1.48013,-0.3188 0.33398,-0.2125 0.50096,-0.5086 0.50096,-0.8881 0,-0.4099 -0.17457,-0.7287 -0.52373,-0.9564 C 8.09138,12.1675 7.62836,11.9626 7.03631,11.7804 6.45944,11.5982 5.79148,11.3933 5.03244,11.1656 4.04569,10.862 3.22592,10.5204 2.57315,10.1409 1.93555,9.76135 1.45736,9.29834 1.13856,8.75183 0.834945,8.20532 0.683137,7.52218 0.683137,6.70241 0.683137,5.56385 0.948801,4.60746 1.48013,3.83324 2.02664,3.04384 2.75532,2.45178 3.66617,2.05708 4.57702,1.6472 5.57136,1.44226 6.6492,1.44226 c 0.75904,0 1.48772,0.09109 2.18604,0.27325 0.7135,0.18218 1.37386,0.40989 1.98106,0.68314 0.2966,0.1302 0.5776,0.2604 0.8432,0.39059 0.462,0.22655 0.6271,0.79182 0.3864,1.24661 z"
         fill="#0f5c4c"
         id="path1" />
      <path
         d="M 29.4581,17.7465 V 9.52605 H 27.9325 V 6.77072 h 1.5256 V 5.79156 c 0,-1.00193 0.167,-1.86724 0.501,-2.59592 0.3492,-0.72867 0.835,-1.29036 1.4574,-1.68507 0.6376,-0.40988 1.3738,-0.614818 2.2088,-0.614818 0.5161,0 1.0323,0.060722 1.5484,0.182168 0.5162,0.12145 1.0399,0.29603 1.5712,0.52374 L 36.2813,3.52024 C 36.1796,3.941 35.7121,4.16862 35.2876,4.08372 34.984,4.00782 34.7031,3.96987 34.445,3.96987 c -0.4402,0 -0.7742,0.14421 -1.0019,0.43265 -0.2277,0.27325 -0.3416,0.69073 -0.3416,1.25242 v 1.11578 h 2.7781 v 2.75533 h -2.7781 v 8.22045 z"
         fill="#0f5c4c"
         id="path2" />
      <path
         d="m 45.1877,17.1089 c -0.3339,0.1366 -0.7059,0.2732 -1.1158,0.4099 -0.3947,0.1366 -0.8121,0.2428 -1.2524,0.3187 -0.4402,0.0911 -0.8729,0.1367 -1.2979,0.1367 -0.6073,0 -1.169,-0.0987 -1.6851,-0.296 -0.501,-0.2126 -0.9033,-0.5542 -1.2069,-1.0248 -0.2884,-0.4706 -0.4326,-1.093 -0.4326,-1.8672 V 8.54688 H 36.6713 V 5.79156 H 38.197 V 1.98877 h 1.7458 c 1.048,0 1.8976,0.84959 1.8976,1.8976 v 1.90519 h 1.4877 c 0.524,0 0.9488,0.4248 0.9488,0.94881 v 1.80651 h -2.4365 v 4.98692 c 0,0.3947 0.0986,0.6831 0.296,0.8653 0.1973,0.167 0.4478,0.2505 0.7514,0.2505 0.2581,0 0.5314,-0.0456 0.8198,-0.1367 0.3036,-0.091 0.5617,-0.1897 0.7742,-0.296 z"
         fill="#0f5c4c"
         id="path3" />
      <path
         d="M 65.5075,17.7465 H 61.8641 V 11.029 c 0,-0.7743 -0.1442,-1.34356 -0.4327,-1.70789 C 61.143,8.95677 60.7711,8.7746 60.3157,8.7746 c -0.4858,0 -0.964,0.19734 -1.4346,0.59204 -0.4706,0.39471 -0.8046,0.90326 -1.002,1.52566 v 6.8542 H 54.2357 V 11.029 c 0,-0.7895 -0.1442,-1.35874 -0.4326,-1.70789 C 53.5146,8.95677 53.1427,8.7746 52.6873,8.7746 c -0.4706,0 -0.9412,0.19734 -1.4118,0.59204 -0.4706,0.39471 -0.8122,0.90326 -1.0247,1.52566 v 6.8542 H 46.6074 V 7.38905 c 0,-0.88227 0.7152,-1.59749 1.5975,-1.59749 0.9287,0 1.6815,0.75287 1.6815,1.68157 v 0.3223 c 0.4403,-0.7135 1.0323,-1.26 1.7762,-1.63952 0.759,-0.39471 1.6395,-0.59206 2.6415,-0.59206 0.9867,0 1.7457,0.23531 2.2771,0.70591 0.5313,0.45543 0.8729,0.99434 1.0247,1.61676 0.4554,-0.74386 1.055,-1.31314 1.7989,-1.70784 0.759,-0.40988 1.6092,-0.61483 2.5504,-0.61483 0.759,0 1.3739,0.14422 1.8445,0.43266 0.4706,0.27325 0.8273,0.63759 1.0702,1.09302 0.2429,0.45542 0.4099,0.9488 0.501,1.48012 0.0911,0.51615 0.1366,1.02471 0.1366,1.52565 z"
         fill="#0f5c4c"
         id="path4" />
      <path
         d="m 73.6043,17.9742 c -1.0171,0 -1.9204,-0.1594 -2.7098,-0.4782 -0.7894,-0.334 -1.465,-0.7818 -2.0266,-1.3435 -0.5466,-0.5617 -0.964,-1.2069 -1.2525,-1.9356 -0.2884,-0.7438 -0.4326,-1.5181 -0.4326,-2.3226 0,-1.1538 0.2505,-2.20126 0.7514,-3.14247 0.5162,-0.9564 1.2525,-1.72303 2.2088,-2.2999 0.9564,-0.59205 2.1102,-0.88808 3.4613,-0.88808 1.3511,0 2.4972,0.28844 3.4384,0.86531 0.9564,0.57687 1.6851,1.33591 2.1861,2.27712 0.5009,0.92603 0.7514,1.93552 0.7514,3.02862 0,0.2125 -0.0152,0.425 -0.0455,0.6376 -0.0152,0.1973 -0.0304,0.3719 -0.0456,0.5237 h -8.8352 c 0.0455,0.5313 0.1898,0.9792 0.4326,1.3435 0.2581,0.3643 0.5845,0.6452 0.9792,0.8425 0.3947,0.1822 0.8122,0.2733 1.2524,0.2733 0.5465,0 1.0551,-0.1291 1.5257,-0.3871 0.0636,-0.0338 0.1246,-0.0691 0.1829,-0.106 0.649,-0.4102 1.3197,-0.9415 2.0875,-0.9415 h 2.3749 c -0.3036,0.6224 -1.2827,2.0418 -1.8444,2.5276 -0.5465,0.4706 -1.1993,0.8425 -1.9584,1.1158 -0.7438,0.2732 -1.5712,0.4099 -2.482,0.4099 z m -2.6415,-7.3096 h 5.1918 C 76.0939,10.1636 75.9497,9.73098 75.722,9.36664 75.4943,8.98712 75.1907,8.69869 74.8111,8.50134 74.4316,8.28881 74.0142,8.18255 73.5587,8.18255 c -0.4706,0 -0.8956,0.10626 -1.2752,0.31879 -0.3643,0.19735 -0.6603,0.48578 -0.888,0.8653 -0.2278,0.36434 -0.372,0.79696 -0.4327,1.29796 z"
         fill="#0f5c4c"
         id="path5" />
      <path
         d="m 89.2143,6.46631 c 0,1.35029 -1.1391,2.37149 -2.391,2.87757 -0.7135,0.27325 -1.2296,0.68312 -1.5484,1.22962 v 7.173 H 81.6315 V 7.46525 c 0,-0.92435 0.7493,-1.67369 1.6737,-1.67369 0.9243,0 1.6737,0.74934 1.6737,1.67369 v 0.74006 c 0.4098,-0.80458 0.9412,-1.43458 1.5939,-1.89001 0.6528,-0.45542 1.336,-0.69072 2.0494,-0.70591 0.167,0 0.2885,0 0.3644,0 0.0911,0 0.167,0.0076 0.2277,0.02278 z"
         fill="#0f5c4c"
         id="path6" />
      <path
         d="m 96.3755,17.9742 c -1.0171,0 -1.9204,-0.167 -2.7098,-0.501 -0.7894,-0.334 -1.4649,-0.7894 -2.0266,-1.3663 -0.5465,-0.5768 -0.964,-1.2372 -1.2524,-1.9811 -0.2885,-0.7438 -0.4327,-1.5332 -0.4327,-2.3682 0,-1.093 0.2505,-2.11011 0.7515,-3.05132 0.5161,-0.94121 1.2524,-1.70025 2.2088,-2.27712 0.9564,-0.57687 2.1101,-0.86531 3.4612,-0.86531 1.3663,0 2.52,0.29603 3.4612,0.88808 0.1663,0.10013 0.3243,0.20575 0.4763,0.31685 1.093,0.80254 0.477,2.31801 -0.8218,2.70926 C 98.8617,9.6677 98.2058,9.36161 97.6448,9.01889 97.6095,8.99733 97.5735,8.97663 97.5368,8.95676 97.1877,8.75941 96.793,8.66074 96.3527,8.66074 c -0.5009,0 -0.9564,0.12903 -1.3662,0.38711 -0.3947,0.25807 -0.7135,0.61483 -0.9564,1.07025 -0.2277,0.4554 -0.3416,1.0019 -0.3416,1.6395 0,0.6224 0.1214,1.169 0.3643,1.6396 0.2429,0.4706 0.5617,0.8425 0.9564,1.1157 0.3947,0.2581 0.8426,0.3872 1.3435,0.3872 0.3036,0 0.5845,-0.0456 0.8426,-0.1367 0.2732,-0.1062 0.5161,-0.2505 0.7286,-0.4326 0.3688,-0.295 0.8498,-0.5145 1.3011,-0.3757 l 0.79,0.243 c 1.046,0.3221 1.551,1.5228 0.733,2.2504 -0.532,0.4706 -1.1618,0.8425 -1.8904,1.1158 -0.7287,0.2732 -1.5561,0.4099 -2.4821,0.4099 z"
         fill="#0f5c4c"
         id="path7" />
    </g>
    <g
       id="Group 1">
      <g
         id="o">
        <circle
           id="Ellipse 1"
           cx="20.4139"
           cy="12.2813"
           r="6.6416101"
           fill="#15d2ec" />
        <ellipse
           id="Ellipse 2"
           cx="22.198799"
           cy="15.2954"
           rx="2.58448"
           ry="4.9721498"
           transform="rotate(-35.3061,22.1988,15.2954)"
           fill="#036c7b" />
        <ellipse
           id="Ellipse 3"
           cx="23.066601"
           cy="16.5732"
           rx="2.21205"
           ry="4.9721498"
           transform="rotate(-35.3061,23.0666,16.5732)"
           fill="#ffffff" />
      </g>
    </g>
  </g>
</svg>
